<?xml version="1.0" encoding="UTF-8"?><svg xmlns="http://www.w3.org/2000/svg" viewBox="0 0 520 347"><defs><style>.cls-1{fill:#ea0a1e;}.cls-2{fill:#fff;}.cls-3{fill:#f5f5f5;opacity:.5;}</style></defs><g id="BG_FFFFFF_"><rect class="cls-2" width="520" height="347"/></g><g id="BG_F6F6F6_"><rect class="cls-3" width="520" height="347"/></g><g id="LOGOS"><path d="m390.298,176.096l4.828-12.657,4.82,12.657h-9.647Zm9.838-19.844h-10.026l-14.01,34.319h8.685l3.191-8.375h14.292l3.192,8.375h8.681l-14.006-34.319Zm-70.711,28.352c-5.657,0-10.236-5.103-10.236-11.4s4.578-11.404,10.236-11.404,10.234,5.106,10.234,11.404-4.586,11.4-10.234,11.4m0-29.529c-10.015,0-18.134,8.117-18.134,18.128s8.119,18.124,18.134,18.124,18.132-8.113,18.132-18.124-8.122-18.128-18.132-18.128m-71.545,29.529c-5.648,0-10.23-5.103-10.23-11.4s4.582-11.404,10.23-11.404,10.237,5.106,10.237,11.404-4.582,11.4-10.237,11.4m0-29.529c-10.012,0-18.124,8.117-18.124,18.128s8.112,18.124,18.124,18.124,18.131-8.113,18.131-18.124-8.119-18.128-18.131-18.128m44.814,1.177l-8.884,13.885-8.891-13.885h-8.688l13.752,21.521v12.797h7.648v-12.794l13.751-21.524h-8.689Zm75.235,0h-29.346v6.581h10.869v27.738h7.655v-27.738h10.822v-6.581Zm-169.121,6.581h10.873v27.738h7.652v-27.738h10.825v-6.581h-29.349v6.581Z"/><rect class="cls-1" x="105.857" y="132.319" width="82.361" height="82.361"/><path class="cls-2" d="m160.773,155.537c-3.822-1.229-8.579-1.955-13.734-1.955s-9.913.726-13.735,1.955c-10.166,3.268-17.152,10.056-17.152,17.899,0,11.035,13.828,19.982,30.887,19.982s30.884-8.947,30.884-19.982c0-7.844-6.985-14.629-17.15-17.899m-13.734,29.29c-2.546,0-4.625-5.005-4.747-11.294,1.531.138,3.119.212,4.747.212s3.213-.074,4.746-.212c-.123,6.289-2.201,11.294-4.746,11.294m-4.426-16.218c.694-4.415,2.413-7.542,4.426-7.542s3.73,3.127,4.423,7.542c-1.414.128-2.896.199-4.423.199s-3.01-.071-4.426-.199m11.554-.333c-1.033-6.929-3.834-11.896-7.128-11.896s-6.097,4.967-7.13,11.896c-6.274-.979-10.659-3.209-10.659-5.805,0-3.499,7.965-6.336,17.789-6.336s17.787,2.837,17.787,6.336c0,2.597-4.385,4.826-10.66,5.805m-33.507,4.429c0-3.383,1.302-6.553,3.573-9.28-.026.189-.04.38-.04.572,0,4.255,6.392,7.872,15.303,9.202-.007.321-.012.643-.012.969,0,7.912,2.195,14.613,5.229,16.924-13.48-.824-24.053-8.74-24.053-18.387m28.705,18.387c3.033-2.31,5.227-9.011,5.227-16.924,0-.325-.003-.647-.011-.969,8.909-1.33,15.302-4.947,15.302-9.202,0-.192-.015-.382-.041-.572,2.271,2.727,3.573,5.897,3.573,9.28,0,9.647-10.573,17.562-24.051,18.387"/></g></svg>